<?xml version="1.0" encoding="iso-8859-1"?>
<!-- Generator: Adobe Illustrator 19.0.0, SVG Export Plug-In . SVG Version: 6.00 Build 0)  -->
<svg version="1.1" id="Capa_1" xmlns="http://www.w3.org/2000/svg" xmlns:xlink="http://www.w3.org/1999/xlink" x="0px" y="0px"
	 viewBox="0 0 499.816 499.816" style="enable-background:new 0 0 499.816 499.816;" xml:space="preserve">
<g>
	<g>
		<rect x="257.908" y="176" width="16" height="32"/>
	</g>
</g>
<g>
	<g>
		<rect x="161.908" y="176" width="16" height="144"/>
	</g>
</g>
<g>
	<g>
		<path d="M337.908,0v48h-40V8h-48v40h-72c-17.648,0-32,14.352-32,32v64.808c-18.232,3.72-32,19.872-32,39.192v178.664l28,37.336h12
			v45.416l56,22.4V400h16v77.416l56,22.4V400h12l28-37.336V184c0-22.056-17.944-40-40-40h-88V96h56v40h48V96h56
			c17.648,0,32-14.352,32-32V0H337.908z M161.908,128h16v16h-16V128z M193.908,444.184l-24-9.6V400h24V444.184z M265.908,476.184
			l-24-9.6V400h24V476.184z M285.908,384h-136l-12-16h160L285.908,384z M281.908,160c13.232,0,24,10.768,24,24v168h-32V224h-16v128
			h-32V176h-16v176h-32v-16h-16v16h-32V184c0-13.232,10.768-24,24-24H281.908z M249.908,80h-72v32h-16V80c0-8.824,7.176-16,16-16h72
			V80z M281.908,120h-16v-16h16V120z M281.908,88h-16V56h16V88z M281.908,40h-16V24h16V40z M369.908,64c0,8.824-7.176,16-16,16h-56
			V64h56V16h16V64z"/>
	</g>
</g>
<g>
</g>
<g>
</g>
<g>
</g>
<g>
</g>
<g>
</g>
<g>
</g>
<g>
</g>
<g>
</g>
<g>
</g>
<g>
</g>
<g>
</g>
<g>
</g>
<g>
</g>
<g>
</g>
<g>
</g>
</svg>
